<svg width="250" height="91" viewBox="0 0 250 91" fill="none" xmlns="http://www.w3.org/2000/svg">
<rect width="250" height="91" rx="12" fill="url(#paint0_linear_166_805)"/>
<path d="M92.2255 53.566C91.3075 53.602 90.4615 53.485 89.6875 53.215C88.9315 52.963 88.3105 52.612 87.8245 52.162C87.3565 51.712 87.0595 51.19 86.9335 50.596C86.8075 49.984 86.9155 49.363 87.2575 48.733C87.7255 47.977 88.6615 47.752 90.0655 48.058C91.1275 48.274 91.8565 48.391 92.2525 48.409C92.6665 48.427 93.0175 48.373 93.3055 48.247C94.6195 47.815 95.3575 47.347 95.5195 46.843C95.6275 46.465 95.3935 46.024 94.8175 45.52C94.5835 45.304 94.3225 45.088 94.0345 44.872C93.7465 44.656 93.5035 44.44 93.3055 44.224C92.4055 43.558 91.6945 42.793 91.1725 41.929C90.6685 41.047 90.4615 40.093 90.5515 39.067C90.6415 38.041 90.8125 37.195 91.0645 36.529C91.3165 35.845 91.6315 35.242 92.0095 34.72C92.6755 33.802 93.5395 33.055 94.6015 32.479C95.8255 31.849 96.8065 31.444 97.5445 31.264C99.0025 30.94 100.478 30.913 101.972 31.183C102.476 31.273 102.908 31.444 103.268 31.696C103.628 31.948 103.988 32.209 104.348 32.479C104.978 33.109 105.131 33.748 104.807 34.396C104.681 34.684 104.483 34.918 104.213 35.098C103.943 35.278 103.655 35.377 103.349 35.395C103.385 35.881 103.295 36.241 103.079 36.475C102.665 36.889 101.945 37.159 100.919 37.285C99.4435 37.177 98.4445 37.258 97.9225 37.528C97.3105 37.852 97.0855 38.554 97.2475 39.634C97.2835 39.868 97.4275 40.111 97.6795 40.363C97.9495 40.615 98.2555 40.885 98.5975 41.173C98.9575 41.461 99.3265 41.785 99.7045 42.145C100.1 42.505 100.442 42.919 100.73 43.387C101.738 45.043 101.657 46.978 100.487 49.192C99.6235 50.848 98.1475 52.09 96.0595 52.918C94.9795 53.35 93.7015 53.566 92.2255 53.566ZM115.466 42.145C115.34 43.189 115.241 43.882 115.169 44.224C115.097 44.548 115.043 44.845 115.007 45.115C114.989 45.259 115.025 45.286 115.115 45.196C115.223 45.106 115.358 44.944 115.52 44.71C115.7 44.458 115.898 44.161 116.114 43.819C116.33 43.477 116.537 43.126 116.735 42.766C117.185 41.902 117.446 41.245 117.518 40.795C117.5 40.723 117.491 40.66 117.491 40.606C117.509 40.534 117.491 40.399 117.437 40.201C117.401 39.985 117.419 39.724 117.491 39.418C117.563 39.112 117.698 38.851 117.896 38.635C118.328 38.167 118.967 37.987 119.813 38.095C120.569 38.131 121.082 38.221 121.352 38.365C121.838 38.635 122.288 39.121 122.702 39.823C122.9 40.255 122.783 41.236 122.351 42.766C121.829 44.692 120.983 46.888 119.813 49.354C119.489 50.002 119.183 50.551 118.895 51.001C118.607 51.451 118.193 51.829 117.653 52.135C117.113 52.441 116.537 52.657 115.925 52.783C114.575 53.053 113.432 52.927 112.496 52.405C112.352 52.279 112.208 52.171 112.064 52.081C111.92 51.991 111.749 51.82 111.551 51.568C110.921 50.722 110.561 49.543 110.471 48.031C110.201 48.949 109.877 49.678 109.499 50.218C108.923 50.974 108.221 51.73 107.393 52.486C106.511 53.008 105.503 53.224 104.369 53.134C103.991 53.116 103.658 53.035 103.37 52.891C103.118 52.675 102.938 52.486 102.83 52.324C102.722 52.18 102.668 51.874 102.668 51.406C102.668 50.578 102.884 49.408 103.316 47.896C103.424 47.5 103.55 47.023 103.694 46.465C103.856 45.907 104.009 45.331 104.153 44.737C104.549 42.991 104.765 41.902 104.801 41.47C104.855 41.02 104.9 40.714 104.936 40.552C105.098 40.246 105.35 40.012 105.692 39.85C106.034 39.688 106.385 39.607 106.745 39.607C107.123 39.607 107.465 39.697 107.771 39.877C108.077 40.057 108.284 40.336 108.392 40.714H108.419V40.741C108.959 41.749 109.229 42.775 109.229 43.819C109.715 43.171 110.138 42.694 110.498 42.388C110.876 42.064 111.245 41.83 111.605 41.686C112.145 41.488 112.55 41.371 112.82 41.335C113.108 41.299 113.414 41.254 113.738 41.2C114.062 41.128 114.377 41.092 114.683 41.092C115.385 41.128 115.646 41.479 115.466 42.145ZM125.347 40.309C125.581 39.715 126.139 39.31 127.021 39.094C127.849 38.878 128.623 38.905 129.343 39.175C130.081 39.463 130.414 39.931 130.342 40.579C130.144 41.209 129.892 41.983 129.586 42.901C129.298 43.801 129.019 44.728 128.749 45.682C128.029 48.13 127.615 49.858 127.507 50.866C127.237 52.486 126.787 53.359 126.157 53.485C125.977 53.521 125.806 53.548 125.644 53.566C125.248 53.584 124.996 53.692 124.888 53.89C124.78 54.088 124.6 54.232 124.348 54.322C124.096 54.43 123.817 54.475 123.511 54.457C123.223 54.457 122.926 54.385 122.62 54.241C122.314 54.115 122.053 53.926 121.837 53.674C121.333 53.062 121.234 52.243 121.54 51.217C121.828 49.255 122.557 46.762 123.727 43.738C124.285 42.244 124.825 41.101 125.347 40.309ZM130.45 36.259C129.568 36.439 128.848 36.385 128.29 36.097C127.75 35.809 127.435 35.467 127.345 35.071C127.255 34.657 127.381 34.234 127.723 33.802C128.119 33.262 128.713 32.911 129.505 32.749C129.865 32.713 130.126 32.695 130.288 32.695C130.45 32.695 130.648 32.731 130.882 32.803C131.476 32.857 131.863 33.118 132.043 33.586C132.295 33.982 132.313 34.432 132.097 34.936C131.899 35.44 131.35 35.881 130.45 36.259ZM134.211 40.255C134.247 39.913 134.463 39.634 134.859 39.418C135.255 39.202 135.696 39.094 136.182 39.094C136.668 39.094 137.136 39.211 137.586 39.445C138.054 39.661 138.369 40.039 138.531 40.579C140.061 39.247 141.456 38.734 142.716 39.04C143.148 39.13 143.517 39.382 143.823 39.796C144.741 38.914 145.758 38.338 146.874 38.068C148.278 38.014 149.286 38.338 149.898 39.04C149.988 39.13 150.078 39.229 150.168 39.337C150.42 39.607 150.564 39.787 150.6 39.877C150.924 40.381 151.014 41.542 150.87 43.36C150.672 45.718 150.222 48.085 149.52 50.461C149.142 51.667 148.8 52.288 148.494 52.324C148.314 52.36 148.143 52.36 147.981 52.324C147.837 52.288 147.702 52.261 147.576 52.243C147.468 52.243 147.405 52.351 147.387 52.567C147.027 53.035 146.478 53.269 145.74 53.269C145.02 53.269 144.408 53.044 143.904 52.594C143.346 52.126 143.148 51.577 143.31 50.947C143.49 50.299 143.688 49.642 143.904 48.976C144.12 48.292 144.354 47.59 144.606 46.87C145.038 45.61 145.515 44.296 146.037 42.928C145.659 43.36 145.146 44.179 144.498 45.385C143.85 46.573 143.445 47.284 143.283 47.518C142.977 48.13 142.725 48.616 142.527 48.976C142.329 49.318 142.059 49.597 141.717 49.813C141.393 50.011 141.087 50.137 140.799 50.191C140.529 50.245 140.268 50.254 140.016 50.218C139.422 50.128 138.999 49.876 138.747 49.462C138.693 49.318 138.639 49.174 138.585 49.03C138.531 48.886 138.486 48.688 138.45 48.436C138.396 47.878 138.468 46.969 138.666 45.709L138.612 45.79C138.828 45.574 138.9 45.52 138.828 45.628C138.108 46.654 137.676 47.311 137.532 47.599C137.388 47.887 137.235 48.211 137.073 48.571C136.911 48.913 136.722 49.318 136.506 49.786C136.29 50.236 136.119 50.641 135.993 51.001C135.867 51.361 135.714 51.712 135.534 52.054C134.724 53.458 133.302 54.025 131.268 53.755C130.836 53.701 130.467 53.593 130.161 53.431C129.855 53.287 129.729 53.062 129.783 52.756C129.927 52.036 130.26 50.839 130.782 49.165C131.808 45.853 132.42 43.72 132.618 42.766C132.744 42.442 132.852 42.109 132.942 41.767C133.05 41.425 133.158 41.128 133.266 40.876C133.482 40.282 133.797 40.075 134.211 40.255ZM143.58 46.924V46.978C143.616 46.906 143.616 46.888 143.58 46.924Z" fill="#357AF6"/>
<path d="M158.909 66.508C158.025 66.5427 157.21 66.43 156.465 66.17C155.737 65.9273 155.139 65.5893 154.671 65.156C154.22 64.7227 153.934 64.22 153.813 63.648C153.692 63.0587 153.796 62.4607 154.125 61.854C154.576 61.126 155.477 60.9093 156.829 61.204C157.852 61.412 158.554 61.5247 158.935 61.542C159.334 61.5593 159.672 61.5073 159.949 61.386C161.214 60.97 161.925 60.5193 162.081 60.034C162.185 59.67 161.96 59.2453 161.405 58.76C161.18 58.552 160.928 58.344 160.651 58.136C160.374 57.928 160.14 57.72 159.949 57.512C159.082 56.8707 158.398 56.134 157.895 55.302C157.41 54.4527 157.21 53.534 157.297 52.546C157.384 51.558 157.548 50.7433 157.791 50.102C158.034 49.4433 158.337 48.8627 158.701 48.36C159.342 47.476 160.174 46.7567 161.197 46.202C162.376 45.5953 163.32 45.2053 164.031 45.032C165.435 44.72 166.856 44.694 168.295 44.954C168.78 45.0407 169.196 45.2053 169.543 45.448C169.89 45.6907 170.236 45.942 170.583 46.202C171.19 46.8087 171.337 47.424 171.025 48.048C170.904 48.3253 170.713 48.5507 170.453 48.724C170.193 48.8973 169.916 48.9927 169.621 49.01C169.656 49.478 169.569 49.8247 169.361 50.05C168.962 50.4487 168.269 50.7087 167.281 50.83C165.86 50.726 164.898 50.804 164.395 51.064C163.806 51.376 163.589 52.052 163.745 53.092C163.78 53.3173 163.918 53.5513 164.161 53.794C164.421 54.0367 164.716 54.2967 165.045 54.574C165.392 54.8513 165.747 55.1633 166.111 55.51C166.492 55.8567 166.822 56.2553 167.099 56.706C168.07 58.3007 167.992 60.164 166.865 62.296C166.033 63.8907 164.612 65.0867 162.601 65.884C161.561 66.3 160.33 66.508 158.909 66.508ZM178.013 61.152C177.683 61.308 177.363 61.4293 177.051 61.516C176.739 61.6027 176.375 61.6893 175.959 61.776C174.867 62.0013 174.078 62.1313 173.593 62.166C173.645 62.3393 173.905 62.5473 174.373 62.79C174.685 62.842 175.023 62.7987 175.387 62.66C175.768 62.504 176.158 62.3653 176.557 62.244C176.973 62.1053 177.371 62.0273 177.753 62.01C178.151 61.9927 178.524 62.14 178.871 62.452C179.009 62.764 179.122 62.946 179.209 62.998C179.295 63.05 179.373 63.076 179.443 63.076C179.512 63.076 179.59 63.102 179.677 63.154C179.763 63.206 179.885 63.4053 180.041 63.752C180.214 64.0987 180.171 64.428 179.911 64.74C179.668 65.052 179.287 65.3207 178.767 65.546C178.247 65.7713 177.64 65.9533 176.947 66.092C176.253 66.2307 175.56 66.326 174.867 66.378C173.307 66.4993 172.119 66.378 171.305 66.014C170.126 65.6153 169.363 64.8267 169.017 63.648C168.566 62.088 168.817 60.268 169.771 58.188C170.204 57.2173 170.889 56.1773 171.825 55.068C172.639 54.0973 173.549 53.3953 174.555 52.962C175.716 52.4593 176.929 52.2253 178.195 52.26C179.547 52.2947 180.483 52.884 181.003 54.028C181.263 54.6347 181.315 55.484 181.159 56.576C180.881 57.9973 180.517 59.0027 180.067 59.592C179.616 60.164 178.931 60.684 178.013 61.152ZM176.505 57.044C175.586 56.8533 174.867 57.3733 174.347 58.604C174.191 58.9333 174.069 59.28 173.983 59.644C174.572 59.7133 175.196 59.384 175.855 58.656C176.097 58.3613 176.279 58.0667 176.401 57.772C176.522 57.46 176.557 57.2173 176.505 57.044ZM188.528 45.552L188.554 45.448L188.788 45.214C188.978 44.7633 189.186 44.4947 189.412 44.408C189.533 44.3733 189.689 44.33 189.88 44.278C190.07 44.226 190.322 44.096 190.634 43.888C190.755 43.6453 191.006 43.5413 191.388 43.576C191.769 43.5933 192.142 43.7147 192.506 43.94C192.887 44.148 193.19 44.4427 193.416 44.824C193.658 45.2053 193.719 45.604 193.598 46.02C193.476 46.4187 193.372 46.722 193.286 46.93C193.216 47.1207 193.138 47.3027 193.052 47.476C192.982 47.6493 192.887 47.8487 192.766 48.074C192.662 48.282 192.523 48.568 192.35 48.932L191.492 50.726C191.405 50.9513 191.327 51.0813 191.258 51.116C191.206 51.1507 191.154 51.2113 191.102 51.298C191.258 51.2633 191.388 51.2373 191.492 51.22C191.596 51.2027 191.7 51.1853 191.804 51.168C192.046 51.1333 192.324 51.0987 192.636 51.064C192.826 51.0987 192.991 51.116 193.13 51.116H193.494C193.702 51.116 193.953 51.1767 194.248 51.298C194.542 51.402 194.733 51.5927 194.82 51.87C194.906 52.1473 194.915 52.4333 194.846 52.728C194.776 53.0053 194.638 53.2653 194.43 53.508C194.222 53.7507 193.953 53.8807 193.624 53.898C192.116 54.314 191.041 54.5393 190.4 54.574L190.244 54.756V54.782C190.07 55.198 189.88 55.7267 189.672 56.368C189.481 56.992 189.264 57.6767 189.022 58.422C188.796 59.15 188.562 59.9127 188.32 60.71C188.077 61.49 187.826 62.244 187.566 62.972C186.734 65.416 186.127 66.742 185.746 66.95C185.607 67.0193 185.46 67.0627 185.304 67.08C185.165 67.1147 185.087 67.1407 185.07 67.158C184.463 67.1233 183.96 67.002 183.562 66.794C183.163 66.586 182.894 66.3867 182.756 66.196C182.617 66.0053 182.582 65.7887 182.652 65.546C182.981 62.53 183.64 59.228 184.628 55.64C184.281 55.64 184.038 55.6747 183.9 55.744C183.64 55.8827 183.328 55.9607 182.964 55.978H182.938C182.66 55.9607 182.409 55.8307 182.184 55.588C181.958 55.3453 181.82 55.068 181.768 54.756C181.716 54.444 181.768 54.1233 181.924 53.794C182.08 53.4647 182.392 53.2047 182.86 53.014C183.414 52.858 183.822 52.728 184.082 52.624C184.584 52.416 185 52.2687 185.33 52.182C185.676 52.0953 185.867 52.0433 185.902 52.026C185.954 51.9913 185.988 51.9653 186.006 51.948C186.058 51.9133 186.188 51.896 186.396 51.896C186.5 51.3933 186.604 50.882 186.708 50.362C186.812 49.842 186.942 49.3133 187.098 48.776C187.444 47.528 187.921 46.4533 188.528 45.552ZM199.852 45.552L199.878 45.448L200.112 45.214C200.303 44.7633 200.511 44.4947 200.736 44.408C200.857 44.3733 201.013 44.33 201.204 44.278C201.395 44.226 201.646 44.096 201.958 43.888C202.079 43.6453 202.331 43.5413 202.712 43.576C203.093 43.5933 203.466 43.7147 203.83 43.94C204.211 44.148 204.515 44.4427 204.74 44.824C204.983 45.2053 205.043 45.604 204.922 46.02C204.801 46.4187 204.697 46.722 204.61 46.93C204.541 47.1207 204.463 47.3027 204.376 47.476C204.307 47.6493 204.211 47.8487 204.09 48.074C203.986 48.282 203.847 48.568 203.674 48.932L202.816 50.726C202.729 50.9513 202.651 51.0813 202.582 51.116C202.53 51.1507 202.478 51.2113 202.426 51.298C202.582 51.2633 202.712 51.2373 202.816 51.22C202.92 51.2027 203.024 51.1853 203.128 51.168C203.371 51.1333 203.648 51.0987 203.96 51.064C204.151 51.0987 204.315 51.116 204.454 51.116H204.818C205.026 51.116 205.277 51.1767 205.572 51.298C205.867 51.402 206.057 51.5927 206.144 51.87C206.231 52.1473 206.239 52.4333 206.17 52.728C206.101 53.0053 205.962 53.2653 205.754 53.508C205.546 53.7507 205.277 53.8807 204.948 53.898C203.44 54.314 202.365 54.5393 201.724 54.574L201.568 54.756V54.782C201.395 55.198 201.204 55.7267 200.996 56.368C200.805 56.992 200.589 57.6767 200.346 58.422C200.121 59.15 199.887 59.9127 199.644 60.71C199.401 61.49 199.15 62.244 198.89 62.972C198.058 65.416 197.451 66.742 197.07 66.95C196.931 67.0193 196.784 67.0627 196.628 67.08C196.489 67.1147 196.411 67.1407 196.394 67.158C195.787 67.1233 195.285 67.002 194.886 66.794C194.487 66.586 194.219 66.3867 194.08 66.196C193.941 66.0053 193.907 65.7887 193.976 65.546C194.305 62.53 194.964 59.228 195.952 55.64C195.605 55.64 195.363 55.6747 195.224 55.744C194.964 55.8827 194.652 55.9607 194.288 55.978H194.262C193.985 55.9607 193.733 55.8307 193.508 55.588C193.283 55.3453 193.144 55.068 193.092 54.756C193.04 54.444 193.092 54.1233 193.248 53.794C193.404 53.4647 193.716 53.2047 194.184 53.014C194.739 52.858 195.146 52.728 195.406 52.624C195.909 52.416 196.325 52.2687 196.654 52.182C197.001 52.0953 197.191 52.0433 197.226 52.026C197.278 51.9913 197.313 51.9653 197.33 51.948C197.382 51.9133 197.512 51.896 197.72 51.896C197.824 51.3933 197.928 50.882 198.032 50.362C198.136 49.842 198.266 49.3133 198.422 48.776C198.769 47.528 199.245 46.4533 199.852 45.552ZM213.204 61.152C212.875 61.308 212.554 61.4293 212.242 61.516C211.93 61.6027 211.566 61.6893 211.15 61.776C210.058 62.0013 209.269 62.1313 208.784 62.166C208.836 62.3393 209.096 62.5473 209.564 62.79C209.876 62.842 210.214 62.7987 210.578 62.66C210.959 62.504 211.349 62.3653 211.748 62.244C212.164 62.1053 212.563 62.0273 212.944 62.01C213.343 61.9927 213.715 62.14 214.062 62.452C214.201 62.764 214.313 62.946 214.4 62.998C214.487 63.05 214.565 63.076 214.634 63.076C214.703 63.076 214.781 63.102 214.868 63.154C214.955 63.206 215.076 63.4053 215.232 63.752C215.405 64.0987 215.362 64.428 215.102 64.74C214.859 65.052 214.478 65.3207 213.958 65.546C213.438 65.7713 212.831 65.9533 212.138 66.092C211.445 66.2307 210.751 66.326 210.058 66.378C208.498 66.4993 207.311 66.378 206.496 66.014C205.317 65.6153 204.555 64.8267 204.208 63.648C203.757 62.088 204.009 60.268 204.962 58.188C205.395 57.2173 206.08 56.1773 207.016 55.068C207.831 54.0973 208.741 53.3953 209.746 52.962C210.907 52.4593 212.121 52.2253 213.386 52.26C214.738 52.2947 215.674 52.884 216.194 54.028C216.454 54.6347 216.506 55.484 216.35 56.576C216.073 57.9973 215.709 59.0027 215.258 59.592C214.807 60.164 214.123 60.684 213.204 61.152ZM211.696 57.044C210.777 56.8533 210.058 57.3733 209.538 58.604C209.382 58.9333 209.261 59.28 209.174 59.644C209.763 59.7133 210.387 59.384 211.046 58.656C211.289 58.3613 211.471 58.0667 211.592 57.772C211.713 57.46 211.748 57.2173 211.696 57.044ZM219.377 54.236C219.62 53.612 219.958 53.144 220.391 52.832C220.842 52.5027 221.266 52.3033 221.665 52.234C222.081 52.1473 222.419 52.1907 222.679 52.364C222.956 52.5373 223.052 52.806 222.965 53.17C223.294 52.8407 223.771 52.5373 224.395 52.26C225.019 51.9827 225.513 51.792 225.877 51.688C226.241 51.584 226.553 51.532 226.813 51.532C227.385 51.5667 227.55 51.8787 227.307 52.468C227.602 52.52 227.818 52.7107 227.957 53.04C228.096 53.3693 228.113 53.7333 228.009 54.132C227.905 54.5307 227.671 54.9207 227.307 55.302C226.943 55.6833 226.449 55.9433 225.825 56.082C225.218 56.2207 224.707 56.5413 224.291 57.044C223.892 57.5293 223.537 58.136 223.225 58.864C222.705 60.0947 222.237 61.8367 221.821 64.09C221.682 64.9047 221.119 65.5893 220.131 66.144C219.195 66.6813 218.337 66.8373 217.557 66.612C216.673 66.3693 216.283 65.7193 216.387 64.662C216.422 63.9167 216.647 62.9287 217.063 61.698C217.479 60.45 217.8 59.514 218.025 58.89C218.25 58.2487 218.406 57.7633 218.493 57.434L219.377 54.236Z" fill="#1443AC"/>
<rect x="19.0063" y="19.1972" width="49.3279" height="59.4177" rx="5" fill="#946635"/>
<rect x="22.3696" y="22.5604" width="42.6014" height="51.5701" rx="2" fill="white"/>
<mask id="path-6-inside-1_166_805" fill="white">
<path d="M33.5806 18.955C33.5806 17.8504 34.476 16.955 35.5806 16.955H51.7602C52.8647 16.955 53.7602 17.8504 53.7602 18.955V25.9237H33.5806V18.955Z"/>
</mask>
<path d="M33.5806 18.955C33.5806 17.8504 34.476 16.955 35.5806 16.955H51.7602C52.8647 16.955 53.7602 17.8504 53.7602 18.955V25.9237H33.5806V18.955Z" fill="#D9D9D9"/>
<path d="M32.0806 18.955C32.0806 17.022 33.6476 15.455 35.5806 15.455H51.7602C53.6932 15.455 55.2602 17.022 55.2602 18.955H52.2602C52.2602 18.6789 52.0363 18.455 51.7602 18.455H35.5806C35.3044 18.455 35.0806 18.6789 35.0806 18.955H32.0806ZM53.7602 25.9237H33.5806H53.7602ZM32.0806 25.9237V18.955C32.0806 17.022 33.6476 15.455 35.5806 15.455V18.455C35.3044 18.455 35.0806 18.6789 35.0806 18.955V25.9237H32.0806ZM51.7602 15.455C53.6932 15.455 55.2602 17.022 55.2602 18.955V25.9237H52.2602V18.955C52.2602 18.6789 52.0363 18.455 51.7602 18.455V15.455Z" fill="#969696" mask="url(#path-6-inside-1_166_805)"/>
<rect x="40.3071" y="16.955" width="7.84762" height="2.24218" fill="#D9D9D9"/>
<rect x="42.5491" y="15.8339" width="3.36327" height="1.12109" fill="#D9D9D9"/>
<circle cx="44.2307" cy="13.5917" r="1.68163" fill="white"/>
<circle cx="44.2309" cy="13.0312" r="3.17381" fill="#D9D9D9" stroke="#969696" stroke-width="1.5"/>
<path d="M49.0618 17.7959H46.8196C46.4459 17.2353 45.5762 15.7219 46.4731 15.2734" stroke="#969696" stroke-width="1.5"/>
<path d="M39.354 17.7959H41.5962C41.9699 17.2353 42.8396 15.7219 41.9427 15.2734" stroke="#969696" stroke-width="1.5"/>
<path d="M30.5121 43.612L31.2201 44.3594L32.4002 43.1137L33.5803 41.8681M32.1642 41.619H30.2288C29.8323 41.619 29.634 41.619 29.4826 41.7004C29.3493 41.7721 29.241 41.8864 29.1731 42.027C29.0959 42.1869 29.0959 42.3962 29.0959 42.8148V44.9075C29.0959 45.3261 29.0959 45.5353 29.1731 45.6952C29.241 45.8359 29.3493 45.9502 29.4826 46.0218C29.634 46.1033 29.8323 46.1033 30.2288 46.1033H32.2114C32.608 46.1033 32.8062 46.1033 32.9577 46.0218C33.0909 45.9502 33.1992 45.8359 33.2671 45.6952C33.3443 45.5353 33.3443 45.3261 33.3443 44.9075V43.8611" stroke="#969696" stroke-linecap="round" stroke-linejoin="round"/>
<g clip-path="url(#clip0_166_805)">
<path d="M30.5123 34.6433L31.2204 35.3906L32.4005 34.145L33.5805 32.8993M32.1644 32.6502H30.2291C29.8325 32.6502 29.6343 32.6502 29.4828 32.7317C29.3496 32.8033 29.2412 32.9177 29.1734 33.0583C29.0962 33.2182 29.0962 33.4275 29.0962 33.846V35.9387C29.0962 36.3573 29.0962 36.5666 29.1734 36.7265C29.2412 36.8671 29.3496 36.9814 29.4828 37.0531C29.6343 37.1346 29.8325 37.1346 30.2291 37.1346H32.2116C32.6082 37.1346 32.8065 37.1346 32.9579 37.0531C33.0912 36.9814 33.1995 36.8671 33.2673 36.7265C33.3445 36.5666 33.3445 36.3573 33.3445 35.9387V34.8924" stroke="#969696" stroke-linecap="round" stroke-linejoin="round"/>
</g>
<rect x="29.3157" y="50.5271" width="4.0449" height="4.0449" rx="0.5" fill="white" stroke="#969696"/>
<rect x="29.3157" y="58.9353" width="4.0449" height="4.0449" rx="0.5" fill="white" stroke="#969696"/>
<rect x="41.4282" y="32.6503" width="14.5741" height="4.48435" rx="1" fill="#357AF6"/>
<rect x="41.4282" y="41.619" width="14.5741" height="4.48435" rx="1" fill="#357AF6"/>
<rect x="41.4282" y="58.4353" width="14.5741" height="4.48435" rx="1" fill="#7DD3FC"/>
<rect x="41.4282" y="50.5876" width="14.5741" height="4.48435" rx="1" fill="#7DD3FC"/>
<path d="M67.7734 25.9237C70.2025 26.4843 76.0695 34.2198 75.6211 36.0135" stroke="#357AF6" stroke-width="1.5"/>
<path d="M61.0471 16.9551C58.8049 15.1613 58.6181 17.7025 58.8049 19.1972L64.4104 31.5292C64.4104 32.0897 62.7027 29.3 62.7287 29.287C60.0381 26.5964 56.5627 22 56.0022 19.1972C56.189 16.6814 57.4596 12.7109 61.0471 16.9551ZM61.0471 16.9551C63.2893 18.7488 66.8394 24.0553 68.3342 26.4843" stroke="#2563EB" stroke-width="1.5"/>
<path d="M67.5239 24.0056C67.6248 24.1065 67.5935 24.3069 67.5997 24.4381C67.6054 24.5615 67.6343 24.6847 67.6837 24.7975C67.7668 24.9876 67.7489 25.2061 67.809 25.4049C67.8701 25.607 67.9591 25.78 67.9192 25.9999C67.8726 26.256 67.7641 25.5022 67.7085 25.2479C67.6734 25.0879 67.6783 24.9432 67.6726 24.7796C67.671 24.7328 67.623 24.5639 67.6837 24.5317C67.8743 24.4308 67.8539 24.8182 67.871 24.9256C67.8867 25.0245 67.9435 25.1749 67.9013 25.2699C67.8719 25.336 67.9073 25.325 67.915 25.2396C67.9287 25.0891 67.8888 24.9495 67.8241 24.8154C67.7875 24.7395 67.7862 24.6739 67.758 24.7907C67.6649 25.1764 67.7571 25.5647 67.7966 25.9503C67.8177 26.1558 67.7966 26.343 67.7966 26.5466C67.7966 26.6175 67.8301 26.4976 67.8352 26.4846C67.8958 26.3288 67.8725 26.1521 67.8448 25.9902C67.8079 25.7747 67.7509 25.5839 67.6589 25.3856C67.648 25.3621 67.5487 25.1232 67.5487 25.2176C67.5487 25.4506 67.5412 25.6883 67.4936 25.9172C67.4783 25.9906 67.4455 26.2368 67.3752 26.0715C67.0198 25.2354 67.1222 24.2773 66.8353 23.4272C66.7562 23.1929 66.7517 23.6602 66.7499 23.7026C66.7302 24.1756 66.7087 24.6563 66.7361 25.1294C66.7438 25.2609 66.7492 25.4002 66.7678 25.1845C66.8161 24.6239 66.7649 24.0581 66.5957 23.5209C66.5782 23.4653 66.2719 22.515 66.0503 22.656C65.9623 22.7119 66.0193 22.9548 66.0282 23.0278C66.0782 23.4369 66.1969 23.8337 66.3312 24.2219C66.3713 24.3377 66.3888 24.4571 66.3822 24.259C66.3657 23.7643 66.3497 23.1854 66.0379 22.7744C65.9438 22.6503 65.7735 22.4898 65.6399 22.6477C65.3862 22.9475 65.4672 23.5911 65.8189 23.7853C65.9734 23.8706 66.1155 23.8377 66.1302 23.6531C66.1592 23.2863 65.9496 22.8816 65.7225 22.6091C65.5666 22.422 65.1951 22.073 64.9127 22.1271C64.8024 22.1482 64.9184 22.4856 64.932 22.5265C65.0547 22.8946 65.3653 23.1044 65.6702 23.3143C65.8487 23.4372 65.9032 23.5749 66.0172 23.7522C66.0907 23.8665 66.193 23.9574 66.2693 24.0676C66.3092 24.1253 66.2596 24.2453 66.2596 24.3128C66.2596 24.3444 66.2421 24.5483 66.2734 24.5483C66.4703 24.5483 66.2632 23.651 66.2472 23.5429C66.2007 23.2276 66.1854 22.8981 66.1618 22.5802C66.1521 22.4488 66.1145 22.3619 66.2155 22.2648C66.2459 22.2356 66.3271 22.2146 66.334 22.1712C66.3506 22.0657 66.3288 22.0078 66.2541 21.9233C66.1115 21.7619 65.7727 21.6423 65.5655 21.5817C65.4025 21.5341 65.2354 21.5541 65.0697 21.5707C64.997 21.578 64.7934 21.5652 64.7529 21.6506C64.7051 21.7517 65.2092 21.787 65.2281 21.674C65.2573 21.4987 64.4487 21.5792 64.3549 21.612C64.2558 21.6467 64.4978 21.5006 64.5202 21.4839C64.5626 21.4523 64.9879 21.1848 64.8783 21.1562C64.5027 21.0582 64.0568 21.0279 63.6732 21.079C63.25 21.1355 65.3808 21.0711 64.954 21.0804C64.5821 21.0885 64.2339 21.2358 63.9734 21.4963C63.9594 21.5104 63.8601 21.602 63.9211 21.6203C64.1236 21.681 64.4396 21.6077 64.6455 21.5955C64.8212 21.5851 65.0263 21.5629 65.1895 21.4895C65.2808 21.4484 65.3562 21.3392 65.425 21.2705C65.59 21.1054 65.3217 20.9773 65.2088 20.8477C65.1268 20.7535 65.006 20.6122 64.9705 20.4882C64.9485 20.4112 64.7194 20.4111 64.6496 20.4111C64.4794 20.4111 64.3488 20.3456 64.202 20.2679C64.1402 20.2351 64.4257 20.1556 64.4802 20.1329C64.587 20.0884 64.4939 20.0144 64.4252 20.0144C64.2007 20.0144 63.9754 20.0392 63.7545 20.0392C63.4729 20.0392 63.1912 20.0144 62.913 20.0144C62.6316 20.0144 62.3267 19.9762 62.0949 19.8106C62.0828 19.802 61.996 19.7278 61.9765 19.7473C61.9467 19.777 62.0414 19.8176 62.0563 19.8216C62.28 19.8821 62.479 19.9071 62.7091 19.9153C62.9012 19.9221 63.1067 19.9342 63.2972 19.8919C63.4078 19.8673 63.5909 19.9272 63.7049 19.9415C63.8058 19.9541 63.9175 19.9841 64.0161 20.0144C64.3575 20.1195 64.9238 20.2928 65.0945 20.6342" stroke="#946635" stroke-linecap="round"/>
<path d="M63.3344 20.3119C63.3233 20.412 63.2182 20.4505 63.176 20.535C63.1025 20.6821 63.3149 20.8796 63.4335 20.9261C63.5519 20.9725 63.7003 20.9689 63.8164 20.9179C63.8813 20.8893 63.9472 20.8239 63.855 20.7829C63.6373 20.6862 63.3443 21.1189 63.7393 21.1189C63.8673 21.1189 63.6808 20.9697 63.6525 20.9578C63.4918 20.8901 63.3102 20.8815 63.1856 21.006" stroke="#946635" stroke-linecap="round"/>
<path d="M73.9236 35.6785C73.6035 35.5224 73.4352 35.4512 73.0973 35.5767C72.9364 35.6364 72.8483 35.7327 72.7735 35.8823C72.6515 36.1263 72.5095 36.4659 72.8595 36.5909C73.0201 36.6482 73.1393 36.0975 73.1674 36.0091C73.2197 35.8447 73.1487 35.9873 73.1222 36.0589C73.0098 36.3613 72.9714 36.5863 73.1086 36.892C73.2412 37.1875 73.617 37.0432 73.7923 36.8422C73.9158 36.7004 74.0309 36.4138 73.9168 36.2355C73.7893 36.0362 73.5461 36.2233 73.4142 36.3124C73.1378 36.4992 72.8216 37.1418 73.1991 37.4036C73.4575 37.5828 73.8826 37.3068 74.0526 37.1229C74.2032 36.96 74.5483 36.3534 74.3311 36.1517C74.1998 36.0298 74.0761 36.1565 73.9598 36.2445C73.7291 36.4191 73.3958 36.612 73.258 36.8784C73.0448 37.2905 73.4299 37.3126 73.6881 37.0867C73.9847 36.8271 74.4941 36.4807 74.4941 36.0453C74.4941 35.7577 73.9896 36.113 73.8692 36.1902C73.567 36.3839 73.6158 36.7135 74.0073 36.6905C74.3209 36.6721 74.637 36.1249 74.1998 36.0544C73.7217 35.9772 73.5832 36.3367 73.5998 36.7358C73.6158 37.1193 73.8784 37.2887 74.0866 36.9418" stroke="#14C7DE" stroke-linecap="round"/>
<path d="M65.7793 31.9087C65.2885 31.4919 65.0867 32.478 65.3942 32.8345C65.6401 33.1197 65.3315 32.1827 65.2875 32.1033C65.1048 31.7737 64.9163 31.5324 64.9853 32.0597C65.0148 32.2855 65.1469 32.6605 65.3023 32.8144C65.4596 32.9701 65.6859 33.1565 65.5808 32.7205C65.5485 32.5865 65.086 31.8358 65.086 32.0966C65.086 32.5322 65.1414 33.1147 65.2579 33.5255C65.2993 33.6716 65.5215 34.2088 65.6845 33.9011C65.8231 33.6397 66.0305 33.4573 66.0993 33.1498C66.1443 32.9488 66.1628 32.7329 66.1497 32.5259C66.1443 32.4409 66.0852 32.3359 66.0578 32.4789C65.9115 33.245 65.7434 34.051 66.2623 34.1547C66.5028 34.2027 68.9259 34.2092 68.9259 33.7167C68.9259 33.3443 68.5341 33.1736 68.2741 33.0559C67.9378 32.9036 67.6003 32.8142 67.243 32.754C67.1378 32.7363 66.8733 32.6379 66.7719 32.7272C66.5034 32.9635 67.5983 33.8171 67.6993 33.8743C67.9396 34.0103 69.0841 34.4671 68.9556 33.767C68.8607 33.2503 68.4691 32.9322 68.0726 32.7205C67.7223 32.5334 67.1601 32.4563 67.2312 33.0693C67.275 33.4482 67.438 33.7582 67.7052 33.9884C67.8734 34.1332 68.7927 34.447 68.3896 33.9146C67.8835 33.2461 67.0571 32.4509 66.2623 32.271C66.1294 32.2409 65.6763 31.8093 66.0164 31.9825C66.4267 32.1915 66.8457 32.356 67.2845 32.4722C67.3213 32.482 67.9003 32.5581 67.8593 32.5259C67.6775 32.3834 67.5751 32.1464 67.4089 31.9825C67.2113 31.7876 66.9689 31.691 66.7275 31.5934C66.4056 31.4633 66.3067 31.5221 66.603 31.8483C67.1345 32.4335 67.8918 32.6999 68.4933 33.1766C68.7898 33.4116 69.0422 33.6705 69.2963 33.9582C69.4782 34.1641 69.5542 34.192 69.2459 34.2668C68.9584 34.3365 68.9674 34.9544 69.0859 34.8873C69.2477 34.7957 69.2508 34.45 69.1393 34.3238" stroke="#14C7DE" stroke-linecap="round"/>
<path d="M70.0156 33.7715C69.5671 31.5293 62.7285 29.287 63.8496 31.5292C64.4101 32.0898 63.7375 34.8925 65.5312 34.8925C67.7734 34.8925 70.5761 36.5742 70.0156 33.7715ZM70.0156 33.7715L71.6972 36.0136M71.6972 36.0136C71.8841 37.3215 72.482 39.2647 73.3788 38.8163C73.9224 38.5445 75.1254 37.317 75.621 36.5741C76.1477 35.7847 75.3663 35.4701 74.4999 34.8925C72.8183 33.7714 72.2578 34.8925 71.6972 36.0136Z" stroke="#7DD3FC" stroke-width="1.5"/>
<defs>
<linearGradient id="paint0_linear_166_805" x1="125" y1="0" x2="125" y2="91" gradientUnits="userSpaceOnUse">
<stop stop-color="#ECFEFF"/>
<stop offset="1" stop-color="#B3FFFB"/>
</linearGradient>
<clipPath id="clip0_166_805">
<rect width="6.72653" height="6.72653" fill="white" transform="translate(27.9751 31.5291)"/>
</clipPath>
</defs>
</svg>
