<svg width="91" height="91" viewBox="0 0 91 91" fill="none" xmlns="http://www.w3.org/2000/svg">
<rect width="91" height="91" rx="12" fill="url(#paint0_linear_166_701)"/>
<rect x="19.0063" y="19.1972" width="49.3279" height="59.4177" rx="5" fill="#946635"/>
<rect x="22.3696" y="22.5604" width="42.6014" height="51.5701" rx="2" fill="white"/>
<mask id="path-4-inside-1_166_701" fill="white">
<path d="M33.5806 18.955C33.5806 17.8504 34.476 16.955 35.5806 16.955H51.7602C52.8647 16.955 53.7602 17.8504 53.7602 18.955V25.9237H33.5806V18.955Z"/>
</mask>
<path d="M33.5806 18.955C33.5806 17.8504 34.476 16.955 35.5806 16.955H51.7602C52.8647 16.955 53.7602 17.8504 53.7602 18.955V25.9237H33.5806V18.955Z" fill="#D9D9D9"/>
<path d="M32.0806 18.955C32.0806 17.022 33.6476 15.455 35.5806 15.455H51.7602C53.6932 15.455 55.2602 17.022 55.2602 18.955H52.2602C52.2602 18.6789 52.0363 18.455 51.7602 18.455H35.5806C35.3044 18.455 35.0806 18.6789 35.0806 18.955H32.0806ZM53.7602 25.9237H33.5806H53.7602ZM32.0806 25.9237V18.955C32.0806 17.022 33.6476 15.455 35.5806 15.455V18.455C35.3044 18.455 35.0806 18.6789 35.0806 18.955V25.9237H32.0806ZM51.7602 15.455C53.6932 15.455 55.2602 17.022 55.2602 18.955V25.9237H52.2602V18.955C52.2602 18.6789 52.0363 18.455 51.7602 18.455V15.455Z" fill="#969696" mask="url(#path-4-inside-1_166_701)"/>
<rect x="40.3071" y="16.955" width="7.84762" height="2.24218" fill="#D9D9D9"/>
<rect x="42.5491" y="15.8339" width="3.36327" height="1.12109" fill="#D9D9D9"/>
<circle cx="44.2307" cy="13.5917" r="1.68163" fill="white"/>
<circle cx="44.2309" cy="13.0312" r="3.17381" fill="#D9D9D9" stroke="#969696" stroke-width="1.5"/>
<path d="M49.0618 17.7959H46.8196C46.4459 17.2353 45.5762 15.7219 46.4731 15.2734" stroke="#969696" stroke-width="1.5"/>
<path d="M39.354 17.7959H41.5962C41.9699 17.2353 42.8396 15.7219 41.9427 15.2734" stroke="#969696" stroke-width="1.5"/>
<path d="M30.5121 43.612L31.2201 44.3594L32.4002 43.1137L33.5803 41.8681M32.1642 41.619H30.2288C29.8323 41.619 29.634 41.619 29.4826 41.7004C29.3493 41.7721 29.241 41.8864 29.1731 42.027C29.0959 42.1869 29.0959 42.3962 29.0959 42.8148V44.9075C29.0959 45.3261 29.0959 45.5353 29.1731 45.6952C29.241 45.8359 29.3493 45.9502 29.4826 46.0218C29.634 46.1033 29.8323 46.1033 30.2288 46.1033H32.2114C32.608 46.1033 32.8062 46.1033 32.9577 46.0218C33.0909 45.9502 33.1992 45.8359 33.2671 45.6952C33.3443 45.5353 33.3443 45.3261 33.3443 44.9075V43.8611" stroke="#969696" stroke-linecap="round" stroke-linejoin="round"/>
<g clip-path="url(#clip0_166_701)">
<path d="M30.5123 34.6433L31.2204 35.3906L32.4005 34.145L33.5805 32.8993M32.1644 32.6502H30.2291C29.8325 32.6502 29.6343 32.6502 29.4828 32.7317C29.3496 32.8033 29.2412 32.9177 29.1734 33.0583C29.0962 33.2182 29.0962 33.4275 29.0962 33.846V35.9387C29.0962 36.3573 29.0962 36.5666 29.1734 36.7265C29.2412 36.8671 29.3496 36.9814 29.4828 37.0531C29.6343 37.1346 29.8325 37.1346 30.2291 37.1346H32.2116C32.6082 37.1346 32.8065 37.1346 32.9579 37.0531C33.0912 36.9814 33.1995 36.8671 33.2673 36.7265C33.3445 36.5666 33.3445 36.3573 33.3445 35.9387V34.8924" stroke="#969696" stroke-linecap="round" stroke-linejoin="round"/>
</g>
<rect x="29.3157" y="50.5271" width="4.0449" height="4.0449" rx="0.5" fill="white" stroke="#969696"/>
<rect x="29.3157" y="58.9353" width="4.0449" height="4.0449" rx="0.5" fill="white" stroke="#969696"/>
<rect x="41.4282" y="32.6503" width="14.5741" height="4.48435" rx="1" fill="#357AF6"/>
<rect x="41.4282" y="41.619" width="14.5741" height="4.48435" rx="1" fill="#357AF6"/>
<rect x="41.4282" y="58.4353" width="14.5741" height="4.48435" rx="1" fill="#7DD3FC"/>
<rect x="41.4282" y="50.5876" width="14.5741" height="4.48435" rx="1" fill="#7DD3FC"/>
<path d="M67.7734 25.9237C70.2025 26.4843 76.0695 34.2198 75.6211 36.0135" stroke="#357AF6" stroke-width="1.5"/>
<path d="M61.0471 16.9551C58.8049 15.1613 58.6181 17.7025 58.8049 19.1972L64.4104 31.5292C64.4104 32.0897 62.7027 29.3 62.7287 29.287C60.0381 26.5964 56.5627 22 56.0022 19.1972C56.189 16.6814 57.4596 12.7109 61.0471 16.9551ZM61.0471 16.9551C63.2893 18.7488 66.8394 24.0553 68.3342 26.4843" stroke="#2563EB" stroke-width="1.5"/>
<path d="M67.5239 24.0056C67.6248 24.1065 67.5935 24.3069 67.5997 24.4381C67.6054 24.5615 67.6343 24.6847 67.6837 24.7975C67.7668 24.9876 67.7489 25.2061 67.809 25.4049C67.8701 25.607 67.9591 25.78 67.9192 25.9999C67.8726 26.256 67.7641 25.5022 67.7085 25.2479C67.6734 25.0879 67.6783 24.9432 67.6726 24.7796C67.671 24.7328 67.623 24.5639 67.6837 24.5317C67.8743 24.4308 67.8539 24.8182 67.871 24.9256C67.8867 25.0245 67.9435 25.1749 67.9013 25.2699C67.8719 25.336 67.9073 25.325 67.915 25.2396C67.9287 25.0891 67.8888 24.9495 67.8241 24.8154C67.7875 24.7395 67.7862 24.6739 67.758 24.7907C67.6649 25.1764 67.7571 25.5647 67.7966 25.9503C67.8177 26.1558 67.7966 26.343 67.7966 26.5466C67.7966 26.6175 67.8301 26.4976 67.8352 26.4846C67.8958 26.3288 67.8725 26.1521 67.8448 25.9902C67.8079 25.7747 67.7509 25.5839 67.6589 25.3856C67.648 25.3621 67.5487 25.1232 67.5487 25.2176C67.5487 25.4506 67.5412 25.6883 67.4936 25.9172C67.4783 25.9906 67.4455 26.2368 67.3752 26.0715C67.0198 25.2354 67.1222 24.2773 66.8353 23.4272C66.7562 23.1929 66.7517 23.6602 66.7499 23.7026C66.7302 24.1756 66.7087 24.6563 66.7361 25.1294C66.7438 25.2609 66.7492 25.4002 66.7678 25.1845C66.8161 24.6239 66.7649 24.0581 66.5957 23.5209C66.5782 23.4653 66.2719 22.515 66.0503 22.656C65.9623 22.7119 66.0193 22.9548 66.0282 23.0278C66.0782 23.4369 66.1969 23.8337 66.3312 24.2219C66.3713 24.3377 66.3888 24.4571 66.3822 24.259C66.3657 23.7643 66.3497 23.1854 66.0379 22.7744C65.9438 22.6503 65.7735 22.4898 65.6399 22.6477C65.3862 22.9475 65.4672 23.5911 65.8189 23.7853C65.9734 23.8706 66.1155 23.8377 66.1302 23.6531C66.1592 23.2863 65.9496 22.8816 65.7225 22.6091C65.5666 22.422 65.1951 22.073 64.9127 22.1271C64.8024 22.1482 64.9184 22.4856 64.932 22.5265C65.0547 22.8946 65.3653 23.1044 65.6702 23.3143C65.8487 23.4372 65.9032 23.5749 66.0172 23.7522C66.0907 23.8665 66.193 23.9574 66.2693 24.0676C66.3092 24.1253 66.2596 24.2453 66.2596 24.3128C66.2596 24.3444 66.2421 24.5483 66.2734 24.5483C66.4703 24.5483 66.2632 23.651 66.2472 23.5429C66.2007 23.2276 66.1854 22.8981 66.1618 22.5802C66.1521 22.4488 66.1145 22.3619 66.2155 22.2648C66.2459 22.2356 66.3271 22.2146 66.334 22.1712C66.3506 22.0657 66.3288 22.0078 66.2541 21.9233C66.1115 21.7619 65.7727 21.6423 65.5655 21.5817C65.4025 21.5341 65.2354 21.5541 65.0697 21.5707C64.997 21.578 64.7934 21.5652 64.7529 21.6506C64.7051 21.7517 65.2092 21.787 65.2281 21.674C65.2573 21.4987 64.4487 21.5792 64.3549 21.612C64.2558 21.6467 64.4978 21.5006 64.5202 21.4839C64.5626 21.4523 64.9879 21.1848 64.8783 21.1562C64.5027 21.0582 64.0568 21.0279 63.6732 21.079C63.25 21.1355 65.3808 21.0711 64.954 21.0804C64.5821 21.0885 64.2339 21.2358 63.9734 21.4963C63.9594 21.5104 63.8601 21.602 63.9211 21.6203C64.1236 21.681 64.4396 21.6077 64.6455 21.5955C64.8212 21.5851 65.0263 21.5629 65.1895 21.4895C65.2808 21.4484 65.3562 21.3392 65.425 21.2705C65.59 21.1054 65.3217 20.9773 65.2088 20.8477C65.1268 20.7535 65.006 20.6122 64.9705 20.4882C64.9485 20.4112 64.7194 20.4111 64.6496 20.4111C64.4794 20.4111 64.3488 20.3456 64.202 20.2679C64.1402 20.2351 64.4257 20.1556 64.4802 20.1329C64.587 20.0884 64.4939 20.0144 64.4252 20.0144C64.2007 20.0144 63.9754 20.0392 63.7545 20.0392C63.4729 20.0392 63.1912 20.0144 62.913 20.0144C62.6316 20.0144 62.3267 19.9762 62.0949 19.8106C62.0828 19.802 61.996 19.7278 61.9765 19.7473C61.9467 19.777 62.0414 19.8176 62.0563 19.8216C62.28 19.8821 62.479 19.9071 62.7091 19.9153C62.9012 19.9221 63.1067 19.9342 63.2972 19.8919C63.4078 19.8673 63.5909 19.9272 63.7049 19.9415C63.8058 19.9541 63.9175 19.9841 64.0161 20.0144C64.3575 20.1195 64.9238 20.2928 65.0945 20.6342" stroke="#946635" stroke-linecap="round"/>
<path d="M63.3344 20.3119C63.3233 20.412 63.2182 20.4505 63.176 20.535C63.1025 20.6821 63.3149 20.8796 63.4335 20.9261C63.5519 20.9725 63.7003 20.9689 63.8164 20.9179C63.8813 20.8893 63.9472 20.8239 63.855 20.7829C63.6373 20.6862 63.3443 21.1189 63.7393 21.1189C63.8673 21.1189 63.6808 20.9697 63.6525 20.9578C63.4918 20.8901 63.3102 20.8815 63.1856 21.006" stroke="#946635" stroke-linecap="round"/>
<path d="M73.9236 35.6785C73.6035 35.5224 73.4352 35.4512 73.0973 35.5767C72.9364 35.6364 72.8483 35.7327 72.7735 35.8823C72.6515 36.1263 72.5095 36.4659 72.8595 36.5909C73.0201 36.6482 73.1393 36.0975 73.1674 36.0091C73.2197 35.8447 73.1487 35.9873 73.1222 36.0589C73.0098 36.3613 72.9714 36.5863 73.1086 36.892C73.2412 37.1875 73.617 37.0432 73.7923 36.8422C73.9158 36.7004 74.0309 36.4138 73.9168 36.2355C73.7893 36.0362 73.5461 36.2233 73.4142 36.3124C73.1378 36.4992 72.8216 37.1418 73.1991 37.4036C73.4575 37.5828 73.8826 37.3068 74.0526 37.1229C74.2032 36.96 74.5483 36.3534 74.3311 36.1517C74.1998 36.0298 74.0761 36.1565 73.9598 36.2445C73.7291 36.4191 73.3958 36.612 73.258 36.8784C73.0448 37.2905 73.4299 37.3126 73.6881 37.0867C73.9847 36.8271 74.4941 36.4807 74.4941 36.0453C74.4941 35.7577 73.9896 36.113 73.8692 36.1902C73.567 36.3839 73.6158 36.7135 74.0073 36.6905C74.3209 36.6721 74.637 36.1249 74.1998 36.0544C73.7217 35.9772 73.5832 36.3367 73.5998 36.7358C73.6158 37.1193 73.8784 37.2887 74.0866 36.9418" stroke="#14C7DE" stroke-linecap="round"/>
<path d="M65.7793 31.9087C65.2885 31.4919 65.0867 32.478 65.3942 32.8345C65.6401 33.1197 65.3315 32.1827 65.2875 32.1033C65.1048 31.7737 64.9163 31.5324 64.9853 32.0597C65.0148 32.2855 65.1469 32.6605 65.3023 32.8144C65.4596 32.9701 65.6859 33.1565 65.5808 32.7205C65.5485 32.5865 65.086 31.8358 65.086 32.0966C65.086 32.5322 65.1414 33.1147 65.2579 33.5255C65.2993 33.6716 65.5215 34.2088 65.6845 33.9011C65.8231 33.6397 66.0305 33.4573 66.0993 33.1498C66.1443 32.9488 66.1628 32.7329 66.1497 32.5259C66.1443 32.4409 66.0852 32.3359 66.0578 32.4789C65.9115 33.245 65.7434 34.051 66.2623 34.1547C66.5028 34.2027 68.9259 34.2092 68.9259 33.7167C68.9259 33.3443 68.5341 33.1736 68.2741 33.0559C67.9378 32.9036 67.6003 32.8142 67.243 32.754C67.1378 32.7363 66.8733 32.6379 66.7719 32.7272C66.5034 32.9635 67.5983 33.8171 67.6993 33.8743C67.9396 34.0103 69.0841 34.4671 68.9556 33.767C68.8607 33.2503 68.4691 32.9322 68.0726 32.7205C67.7223 32.5334 67.1601 32.4563 67.2312 33.0693C67.275 33.4482 67.438 33.7582 67.7052 33.9884C67.8734 34.1332 68.7927 34.447 68.3896 33.9146C67.8835 33.2461 67.0571 32.4509 66.2623 32.271C66.1294 32.2409 65.6763 31.8093 66.0164 31.9825C66.4267 32.1915 66.8457 32.356 67.2845 32.4722C67.3213 32.482 67.9003 32.5581 67.8593 32.5259C67.6775 32.3834 67.5751 32.1464 67.4089 31.9825C67.2113 31.7876 66.9689 31.691 66.7275 31.5934C66.4056 31.4633 66.3067 31.5221 66.603 31.8483C67.1345 32.4335 67.8918 32.6999 68.4933 33.1766C68.7898 33.4116 69.0422 33.6705 69.2963 33.9582C69.4782 34.1641 69.5542 34.192 69.2459 34.2668C68.9584 34.3365 68.9674 34.9544 69.0859 34.8873C69.2477 34.7957 69.2508 34.45 69.1393 34.3238" stroke="#14C7DE" stroke-linecap="round"/>
<path d="M70.0156 33.7715C69.5671 31.5293 62.7285 29.287 63.8496 31.5292C64.4101 32.0898 63.7375 34.8925 65.5312 34.8925C67.7734 34.8925 70.5761 36.5742 70.0156 33.7715ZM70.0156 33.7715L71.6972 36.0136M71.6972 36.0136C71.8841 37.3215 72.482 39.2647 73.3788 38.8163C73.9224 38.5445 75.1254 37.317 75.621 36.5741C76.1477 35.7847 75.3663 35.4701 74.4999 34.8925C72.8183 33.7714 72.2578 34.8925 71.6972 36.0136Z" stroke="#7DD3FC" stroke-width="1.5"/>
<defs>
<linearGradient id="paint0_linear_166_701" x1="45.5" y1="0" x2="45.5" y2="91" gradientUnits="userSpaceOnUse">
<stop stop-color="#ECFEFF"/>
<stop offset="1" stop-color="#B3FFFB"/>
</linearGradient>
<clipPath id="clip0_166_701">
<rect width="6.72653" height="6.72653" fill="white" transform="translate(27.9751 31.5291)"/>
</clipPath>
</defs>
</svg>
